<svg width="631" height="169" viewBox="0 0 631 169" fill="none" xmlns="http://www.w3.org/2000/svg">
<g clip-path="url(#clip0_157_1506)">
<path d="M97 82.8001C96.6 82.8001 96.4 83.9001 95 85.1001C93.4 86.6001 92 87.1001 88.8 88.2001C85.2 89.5001 84 91.0001 83 93.2001C82.4 94.4001 82.2 95.8001 82.4 96.6001C82.5 97.0001 82.5 97.4001 82.8 97.3001C83.2 97.2001 84.2 93.5001 87.7 93.3001C89.3 93.2001 91.4 93.8001 92.1 96.3001C92.2 96.7001 92.2 97.0001 92.2 97.4001C92.6 102.6 87.6 107.4 81.4 107.2C76.9 107 71.9 104.1 71.1 98.7001C70.4 94.2001 72.3 89.5001 75.4 87.8001C75.9 87.9001 76.4 88.1001 77.1 88.2001C78.3 88.4001 79.4 88.5001 80.5 88.3001C81.6 88.1001 82.8 87.5001 82.7 86.5001C82.5 85.0001 80.1 84.8001 78.9 84.8001C77.6 84.8001 76.6 85.0001 76.1 85.2001C75.1 84.4001 74.5 83.6001 74.1 82.1001C73.3 79.2001 74.9 74.3001 79.7 73.8001C82.7 73.5001 84.6 74.7001 85.9 76.3001C87.1 77.9001 87.6 78.4001 87.9 78.3001C88.1 78.2001 88.2 78.1001 88.3 77.5001V74.5001C88.3 74.2001 88.2 73.9001 88.2 73.6001C87.8 71.8001 83.6 70.0001 79.1 70.2001C77.7 70.3001 76.8 70.4001 74.6 71.1001C69.5 72.9001 67.9 77.4001 68.3 80.8001C68.8 84.3001 71.7 86.1001 71.7 86.1001C66.5 88.1001 62.4 93.7001 64.2 101C66 108.2 74.2 110.9 79.8 111C85.9 111.1 90.3 108.7 93 105.9C95.2 103.5 96.5 100 96 96.6001C95.8 95.4001 94.9 92.8001 92.9 91.6001C92.9 91.6001 94 91.2001 94.8 90.6001C96.5 89.3001 97.3 87.7001 97.6 86.1001C97.8 84.7001 97.6 83.4001 97.3 83.0001C97.2 83.0001 97.1 82.8001 97 82.8001Z" fill="#8C8C8C"/>
<path d="M114.3 107.3H129.4C134.3 107.3 139.3 104.7 139.7 98.1999C140.1 91.4999 136 88.8999 130.9 88.8999H124.1C122.3 88.8999 121.3 88.9999 120.2 90.8999L117.9 95.0999H126.9C129 95.0999 129.9 96.4999 129.9 98.0999C129.9 99.6999 129 101 126.9 101H118.7C116.4 101 114.4 100.2 113.1 98.5999C112 97.1999 111 95.4999 111 92.3999C111 88.9999 112.1 87.5999 113.1 86.2999C114.3 84.7999 116.2 84.2999 118 84.0999H118.8H133.5C135.3 84.0999 136.3 84.0999 137.4 82.0999L139.6 77.8999H114.5C106.6 77.8999 100.9 84.1999 100.9 92.5999C100.9 100.1 105.5 106.1 112.2 107.2C112.3 107.2 112.8 107.3 114.3 107.3Z" fill="#8C8C8C"/>
<path d="M41.3 86.7C41.3 84 39.1 84.1 39.1 84.1H27.4L20.5 90.7L33.9 107.4H24.7C21.3 107.4 20 105.7 18.2 103.2L11.8 94.7C11.6 94.5 11.3 94.2 10.7 94.4C10.4 94.5 10.3 94.8 10.2 95.1V107.4H0V77.8H10.2V90.3L20.6 80C21.6 79.1 22.4 78.5 23.4 78.2C24.1 78 24.9 77.9 26 77.9H65.4L63.2 82.1C62.1 84 61.1 84.1 59.5 84.1H51.3V107.3H41.4V86.7H41.3Z" fill="#8C8C8C"/>
<path d="M177.2 75.9V80.3C177.2 83.3 177.3 85.8 177.3 87.8C177.4 89.8 177.8 91.8 178.5 93.9C179.8 97.8 182.2 101.4 185.7 104.6C189.2 107.8 193.6 110.6 199 112.9L189.9 126.5C185.3 124.4 181.3 122 177.9 119.3C174.5 116.6 171.6 113 169.1 108.6C166.9 112.9 164.1 116.6 160.8 119.6C157.4 122.6 153.7 125.2 149.6 127.5L139.8 114.7C145.3 112 149.6 109.1 152.7 105.8C155.8 102.5 158.1 98.7 159.7 94.3C160.4 92.2 160.9 90 161 87.8C161.1 85.6 161.2 83.0999 161.2 80.1999V75.8H177.2V75.9ZM195.4 144.9C195.4 141.8 196 138.8 197.3 136C198.5 133.1 200.2 130.7 202.4 128.6C204.6 126.5 207 124.8 209.9 123.6C212.7 122.4 215.8 121.7 219.1 121.7C222.3 121.7 225.4 122.3 228.2 123.6C231.1 124.8 233.6 126.5 235.8 128.6C238 130.7 239.7 133.2 240.9 136C242.1 138.8 242.8 141.8 242.8 144.9C242.8 148.1 242.2 151.1 240.9 153.9C239.7 156.7 238 159.1 235.8 161.3C233.6 163.4 231.1 165.1 228.2 166.3C225.3 167.6 222.3 168.2 219.1 168.2C215.8 168.2 212.7 167.6 209.9 166.3C207 165.1 204.6 163.4 202.4 161.3C200.2 159.2 198.5 156.7 197.3 153.9C196 151.1 195.4 148.1 195.4 144.9ZM206.4 56.7C212.8 58 217.3 60.5 219.7 64.3C222.2 68.1 223.4 73.1999 223.4 79.5999V96.8H240.5V111.2H207.8V79.5C207.8 77.1 207.2 75.3 206.2 73.9C205.1 72.6 203.2 71.4999 200.6 70.6999L206.4 56.7ZM210.1 144.9C210.1 147.4 210.9 149.5 212.6 151.2C214.2 152.9 216.4 153.7 219.1 153.7C221.8 153.7 223.9 152.9 225.6 151.2C227.2 149.5 228.1 147.4 228.1 144.9C228.1 142.4 227.3 140.3 225.6 138.6C224 136.9 221.8 136.1 219.1 136.1C216.4 136.1 214.3 136.9 212.6 138.6C210.9 140.3 210.1 142.4 210.1 144.9Z" fill="#4D4D4D"/>
<path d="M283.2 75.9V80.3C283.2 83.3 283.2 85.8 283.3 87.8C283.4 89.8 283.8 91.8 284.5 93.9C285.8 97.8 288.2 101.4 291.7 104.6C295.2 107.8 299.6 110.6 305.1 112.9L296 126.5C291.4 124.4 287.4 122 284 119.3C280.6 116.6 277.7 113 275.2 108.6C273 112.9 270.2 116.6 266.9 119.6C263.6 122.6 259.8 125.2 255.7 127.5L245.9 114.7C251.4 112 255.7 109.1 258.8 105.8C261.9 102.5 264.2 98.7 265.7 94.3C266.4 92.2 266.9 90 267 87.8C267.1 85.6 267.2 83.0999 267.2 80.1999V75.8H283.2V75.9ZM301.3 144.9C301.3 141.8 301.9 138.8 303.2 136C304.4 133.1 306.1 130.7 308.3 128.6C310.4 126.5 313 124.8 315.8 123.6C318.7 122.4 321.7 121.7 325 121.7C328.2 121.7 331.3 122.3 334.1 123.6C337 124.8 339.5 126.5 341.7 128.6C343.9 130.7 345.6 133.2 346.8 136C348.1 138.8 348.7 141.8 348.7 144.9C348.7 148.1 348.1 151.1 346.8 153.9C345.6 156.7 343.9 159.1 341.7 161.3C339.5 163.4 337 165.1 334.1 166.3C331.2 167.6 328.2 168.2 325 168.2C321.7 168.2 318.6 167.6 315.8 166.3C313 165.1 310.5 163.4 308.3 161.3C306.1 159.2 304.4 156.7 303.2 153.9C301.9 151.1 301.3 148.1 301.3 144.9ZM312.3 56.7C318.7 58 323.2 60.5 325.7 64.3C328.2 68.1 329.4 73.1999 329.4 79.5999V96.8H346.5V111.2H313.8V79.5C313.8 77.1 313.2 75.3 312.1 73.9C311 72.6 309.1 71.4999 306.5 70.6999L312.3 56.7ZM316 144.9C316 147.4 316.8 149.5 318.5 151.2C320.2 152.9 322.3 153.7 325 153.7C327.7 153.7 329.8 152.9 331.5 151.2C333.2 149.5 334 147.4 334 144.9C334 142.4 333.2 140.3 331.5 138.6C329.8 136.9 327.7 136.1 325 136.1C322.3 136.1 320.2 136.9 318.5 138.6C316.9 140.3 316 142.4 316 144.9Z" fill="#4D4D4D"/>
<path d="M404.7 125.6H357.5V77.5001H404.7V125.6ZM389.4 91.5001H372.8V111.7H389.4V91.5001ZM411.5 70.7001C414.2 71.5001 416 72.6001 417.1 73.9001C418.2 75.2001 418.8 77.1001 418.8 79.5001V111.1H451.6V96.7001H434.5V79.5001C434.5 73.1001 433.3 68.0001 430.8 64.2001C428.3 60.4001 423.9 57.9001 417.4 56.6001L411.5 70.7001Z" fill="#4D4D4D"/>
<path d="M461.8 125.6V77.5H502.8V91.5999H477.5V111.3H503.1V125.6H461.8ZM504.2 144.9C504.2 141.8 504.8 138.8 506.1 136C507.3 133.1 509 130.7 511.2 128.6C513.4 126.5 515.9 124.8 518.7 123.6C521.6 122.4 524.6 121.7 527.9 121.7C531.1 121.7 534.2 122.3 537 123.6C539.9 124.8 542.4 126.5 544.6 128.6C546.8 130.7 548.4 133.2 549.7 136C550.9 138.8 551.6 141.8 551.6 144.9C551.6 148.1 551 151.1 549.7 153.9C548.5 156.7 546.8 159.1 544.6 161.3C542.4 163.4 539.9 165.1 537 166.3C534.1 167.6 531.1 168.2 527.9 168.2C524.6 168.2 521.5 167.6 518.7 166.3C515.9 165.1 513.4 163.4 511.2 161.3C509 159.2 507.3 156.7 506.1 153.9C504.8 151.1 504.2 148.1 504.2 144.9ZM515.9 56.7C522.3 58 526.8 60.5 529.3 64.3C531.8 68.1 533 73.1999 533 79.5999V96.8H550V111.2H517.3V79.5C517.3 77.1 516.8 75.3 515.6 73.9C514.5 72.6 512.6 71.4999 510 70.6999L515.9 56.7ZM518.9 144.9C518.9 147.4 519.7 149.5 521.4 151.2C523.1 152.9 525.2 153.7 527.9 153.7C530.6 153.7 532.7 152.9 534.4 151.2C536.1 149.5 536.9 147.4 536.9 144.9C536.9 142.4 536.1 140.3 534.4 138.6C532.7 136.9 530.6 136.1 527.9 136.1C525.2 136.1 523.1 136.9 521.4 138.6C519.7 140.3 518.9 142.4 518.9 144.9Z" fill="#4D4D4D"/>
<path d="M502.8 5.8C496.4 1.6 491.8 0 488.5 0C485.4 0 483.4 1.4 482 3.6C479.1 8 480 13.7 492.4 21.8C500.6 27.1 521.6 33.3 534.2 38.1C524.6 28.4 510.9 11.2 502.8 5.8Z" fill="#F40159"/>
<path d="M576.1 54.0001C568 48.7001 546.7 42.9001 534.1 38.1001C543.5 47.7001 557.5 64.6001 565.6 69.9001C572 74.1001 576.6 75.7001 579.9 75.7001C583 75.7001 585.1 74.3001 586.4 72.1001C589.3 67.8001 588.5 62.1001 576.1 54.0001Z" fill="#96003B"/>
<path d="M623.5 90.9999C617.7 83.0999 599.8 70.2999 589.7 61.3999C595.1 73.6999 602.3 94.3999 608.1 102.3C616.8 114.3 622.6 114.9 626.8 111.8C631.1 108.6 632.3 103 623.5 90.9999Z" fill="#4D4D4D"/>
<path d="M589.8 61.4C584.4 49.1 577.6 28.1 571.8 20.2C563.1 8.29998 557.3 7.59998 553.1 10.8C548.8 13.9 547.7 19.5 556.4 31.5C562.1 39.4 579.7 52.5 589.8 61.4Z" fill="#999999"/>
</g>
<defs>
<clipPath id="clip0_157_1506">
<rect width="630.1" height="168.1" fill="white"/>
</clipPath>
</defs>
</svg>
